<?xml version="1.0" standalone="no"?>
<!DOCTYPE svg PUBLIC "-//W3C//DTD SVG 20010904//EN"
 "http://www.w3.org/TR/2001/REC-SVG-20010904/DTD/svg10.dtd">
<svg version="1.0" xmlns="http://www.w3.org/2000/svg"
 width="386.000000pt" height="386.000000pt" viewBox="0 0 386.000000 386.000000"
 preserveAspectRatio="xMidYMid meet">

<g transform="translate(0.000000,386.000000) scale(0.100000,-0.100000)"
fill="#000000" stroke="none">
<path d="M2460 3238 c-6 -24 -15 -58 -20 -77 -12 -43 -4 -54 10 -16 l11 29 22
-32 c26 -38 45 -43 20 -6 -17 26 -17 27 12 50 21 17 25 24 14 24 -9 0 -22 -7
-29 -15 -22 -26 -33 -17 -26 21 4 19 10 42 13 50 3 8 0 14 -6 14 -5 0 -15 -19
-21 -42z"/>
<path d="M2293 3213 c-29 -20 -31 -68 -4 -83 29 -15 49 -12 71 10 24 24 26 53
4 74 -19 20 -42 20 -71 -1z m62 -13 c14 -43 -22 -84 -51 -59 -17 14 -18 33 -4
60 14 25 47 25 55 -1z"/>
<path d="M1959 3129 c9 -46 21 -84 28 -86 18 -6 73 47 73 71 0 39 -23 60 -58
53 -26 -5 -31 -3 -34 15 -2 12 -8 23 -14 25 -8 3 -6 -22 5 -78z m77 10 c17
-19 17 -23 3 -47 -23 -41 -45 -40 -53 3 -5 23 -3 42 5 51 15 19 22 18 45 -7z"/>
<path d="M2126 3188 c-21 -29 -20 -41 2 -68 23 -29 62 -22 82 15 31 57 -47
106 -84 53z m62 0 c25 -25 8 -78 -25 -78 -22 0 -37 44 -24 69 13 24 31 27 49
9z"/>
<path d="M2614 3175 c-16 -12 -17 -17 -6 -34 12 -21 16 -51 6 -51 -3 0 -15 5
-26 11 -16 9 -19 8 -16 -3 3 -7 18 -13 34 -13 25 0 29 4 28 25 -1 14 -5 34 -9
44 -7 16 -5 18 18 14 32 -6 34 -3 8 11 -13 7 -24 6 -37 -4z"/>
<path d="M2888 3085 c-13 -15 -32 -25 -49 -25 -39 0 -56 -33 -34 -66 8 -13 23
-24 32 -24 15 0 15 1 -1 13 -26 19 -18 61 12 65 21 3 23 0 21 -42 -2 -25 3
-51 10 -60 18 -22 30 -20 24 3 -3 13 2 21 16 26 12 3 21 11 21 16 0 5 -9 4
-20 -3 -14 -9 -22 -10 -31 -1 -18 18 -1 53 25 53 13 0 31 8 40 19 16 17 16 20
1 35 -23 22 -42 20 -67 -9z m59 -1 c5 -15 -11 -33 -30 -34 -15 0 -20 32 -6 41
20 13 29 11 36 -7z"/>
<path d="M3032 2854 c-19 -20 -7 -61 21 -75 21 -12 21 -11 5 8 -21 23 -23 44
-6 61 17 17 48 15 70 -5 20 -18 25 -4 6 15 -17 17 -80 14 -96 -4z"/>
<path d="M2359 2845 c-3 -2 -54 -15 -114 -29 -285 -65 -326 -92 -248 -170 20
-21 35 -26 72 -26 59 1 144 20 251 59 51 18 89 26 94 21 17 -17 -12 -84 -52
-123 -21 -21 -63 -50 -93 -65 -42 -22 -55 -34 -57 -55 -5 -43 20 -48 143 -25
165 31 184 31 234 6 25 -13 59 -40 75 -61 29 -37 31 -43 30 -125 0 -103 -29
-196 -100 -322 -46 -81 -48 -100 -14 -100 76 0 210 282 210 442 -1 129 -50
201 -185 268 -93 46 -93 46 -74 128 18 75 6 117 -43 152 -30 22 -52 30 -83 30
-23 0 -44 -2 -46 -5z"/>
<path d="M3140 2757 c-28 -14 -38 -51 -20 -73 27 -31 110 -4 110 35 0 36 -51
57 -90 38z m68 -29 c4 -21 -39 -51 -62 -42 -22 8 -21 51 2 57 31 9 57 2 60
-15z"/>
<path d="M3271 2647 c-1 -11 -15 -24 -38 -33 -78 -32 -93 -39 -93 -46 0 -9
108 28 126 42 9 8 14 8 19 -1 6 -8 10 -7 17 5 13 23 47 20 57 -6 4 -12 11 -17
14 -11 3 5 -1 20 -10 32 -13 19 -22 22 -49 18 -20 -4 -35 -1 -38 6 -2 7 -5 4
-5 -6z"/>
<path d="M523 2578 c-31 -36 -35 -46 -22 -70 18 -37 93 -103 155 -138 98 -55
269 -73 384 -40 61 17 100 76 100 149 0 63 -10 67 -246 85 -116 9 -227 21
-245 26 -58 17 -103 12 -126 -12z"/>
<path d="M3318 2542 c-4 -13 -23 -22 -62 -32 -51 -12 -75 -25 -65 -35 2 -1 34
7 72 20 43 15 69 19 73 13 4 -7 10 -4 16 6 13 22 34 20 52 -6 19 -26 32 -18
17 10 -12 23 -45 37 -61 27 -6 -4 -17 -2 -24 4 -10 9 -15 7 -18 -7z"/>
<path d="M3312 2424 c-22 -15 -27 -38 -16 -68 3 -9 10 -16 15 -16 5 0 4 9 -3
20 -19 30 0 54 43 55 27 0 34 -4 34 -20 0 -13 -6 -20 -17 -19 -10 1 -14 -4
-11 -12 3 -8 8 -14 12 -14 13 0 31 24 31 41 0 18 -35 49 -55 49 -6 0 -21 -7
-33 -16z"/>
<path d="M2088 2313 c-6 -16 -13 -66 -15 -113 -1 -47 -8 -160 -14 -252 -6 -93
-8 -181 -4 -198 14 -63 51 -24 75 80 7 30 21 82 32 115 25 77 35 248 19 298
-13 39 -56 97 -72 97 -5 0 -15 -12 -21 -27z"/>
<path d="M2360 2286 c0 -22 46 -46 87 -46 42 0 83 23 83 46 0 11 -18 14 -85
14 -66 0 -85 -3 -85 -14z"/>
<path d="M3368 2288 c-16 -5 -28 -17 -28 -25 0 -13 3 -13 15 -3 8 7 21 10 29
7 8 -3 17 -1 19 6 3 9 9 8 22 -3 11 -9 16 -10 11 -3 -13 23 -40 31 -68 21z"/>
<path d="M3430 2231 c0 -8 -7 -11 -15 -7 -16 6 -21 -9 -6 -18 11 -7 36 22 27
31 -3 3 -6 1 -6 -6z"/>
<path d="M2420 2133 c0 -10 9 -31 20 -48 33 -49 27 -71 -26 -95 -26 -11 -55
-20 -66 -20 -42 0 -29 -66 20 -98 61 -40 170 13 188 92 5 24 1 33 -25 53 -25
20 -31 32 -31 62 0 24 -7 44 -18 54 -25 23 -62 22 -62 0z"/>
<path d="M579 2034 c-54 -65 54 -219 187 -264 73 -26 115 -25 148 1 22 17 26
28 26 73 0 38 -6 61 -19 78 -21 26 -109 67 -203 93 -32 9 -60 21 -63 26 -10
15 -61 10 -76 -7z"/>
<path d="M3323 1993 c9 -2 25 -2 35 0 9 3 1 5 -18 5 -19 0 -27 -2 -17 -5z"/>
<path d="M3215 1949 c-4 -6 -5 -12 -2 -15 2 -3 7 2 10 11 7 17 1 20 -8 4z"/>
<path d="M3462 1908 c-1 -31 -5 -65 -8 -75 -5 -14 -4 -15 5 -7 8 7 11 34 8 75
l-3 64 -2 -57z"/>
<path d="M3532 1941 c-9 -5 -3 -8 17 -7 17 1 31 4 31 9 0 10 -32 9 -48 -2z"/>
<path d="M3220 1798 c0 -8 4 -18 9 -23 4 -6 11 -25 14 -42 8 -43 -8 -43 -80
-3 -66 38 -78 38 -33 0 19 -17 30 -30 24 -30 -6 0 -19 -7 -30 -15 -17 -13 -16
-13 13 -3 26 10 40 9 70 -1 112 -40 154 -71 96 -71 -20 0 -24 -3 -14 -9 11 -7
11 -9 0 -14 -8 -2 5 -2 28 0 l41 5 -5 -43 c-3 -24 -14 -61 -25 -83 -10 -21
-17 -41 -14 -44 10 -10 56 108 56 143 0 19 5 35 11 35 12 0 76 -63 97 -95 7
-11 3 -1 -9 23 -13 23 -25 42 -28 42 -3 1 -17 10 -30 21 -21 17 -22 22 -10 30
7 5 32 9 54 10 45 1 84 13 69 21 -5 3 -31 2 -59 -2 -59 -9 -95 2 -95 29 0 10
-7 25 -16 32 -15 12 -16 10 -10 -19 7 -28 5 -32 -12 -32 -22 0 -52 24 -52 41
0 16 -39 97 -50 104 -5 3 -10 0 -10 -7z"/>
<path d="M3672 1780 c0 -19 2 -27 5 -17 2 9 2 25 0 35 -3 9 -5 1 -5 -18z"/>
<path d="M3421 1714 c-6 -15 -9 -29 -7 -32 3 -2 10 8 16 23 14 36 7 43 -9 9z"/>
<path d="M2505 1700 c-52 -17 -150 -76 -153 -93 -2 -10 7 -22 23 -29 22 -10
41 -9 103 6 104 25 162 26 175 4 22 -34 -35 -212 -78 -248 -14 -11 -22 -12
-48 -1 -94 37 -175 61 -209 61 -48 0 -78 27 -71 64 3 14 9 29 14 32 5 3 9 30
9 60 0 54 -1 55 -26 52 -21 -2 -34 -17 -66 -78 -34 -64 -92 -172 -173 -322
-56 -103 -70 -123 -125 -178 -33 -33 -77 -68 -100 -80 -44 -23 -50 -38 -21
-64 48 -43 141 -28 187 32 65 81 150 220 208 335 34 66 66 122 72 124 6 2 24
-7 40 -20 16 -13 61 -41 101 -62 137 -71 136 -93 -6 -187 -55 -36 -106 -68
-112 -70 -24 -8 2 -28 36 -28 83 0 218 51 255 95 20 24 59 17 130 -23 116 -67
182 -94 247 -99 55 -5 69 -2 119 23 59 30 92 65 117 125 27 65 -20 91 -87 50
-17 -11 -52 -25 -78 -31 -56 -14 -123 2 -230 56 -79 40 -90 62 -63 127 78 189
90 249 61 306 -24 46 -60 63 -145 67 -42 2 -89 -1 -106 -6z"/>
<path d="M3660 1690 c-9 -6 -10 -10 -3 -10 6 0 15 5 18 10 8 12 4 12 -15 0z"/>
<path d="M3190 1619 c0 -11 43 -22 67 -17 11 2 2 8 -24 15 -24 6 -43 7 -43 2z"/>
<path d="M3525 1600 c10 -11 20 -20 23 -20 3 0 -3 9 -13 20 -10 11 -20 20 -23
20 -3 0 3 -9 13 -20z"/>
<path d="M3245 1580 c-3 -5 1 -10 9 -10 9 0 16 5 16 10 0 6 -4 10 -9 10 -6 0
-13 -4 -16 -10z"/>
<path d="M3560 1566 c0 -2 8 -10 18 -17 15 -13 16 -12 3 4 -13 16 -21 21 -21
13z"/>
<path d="M3057 1548 c6 -10 104 -10 120 0 6 4 -20 7 -57 7 -37 0 -66 -3 -63
-7z"/>
<path d="M3614 1463 c11 -46 11 -46 14 -14 2 20 -2 40 -11 48 -12 12 -12 7 -3
-34z"/>
<path d="M282 1468 c-38 -38 7 -129 108 -221 76 -69 126 -99 217 -131 109 -40
181 -48 462 -53 350 -7 371 -1 371 109 0 54 -3 63 -33 93 -41 41 -16 37 -562
75 -88 6 -187 16 -220 21 -68 11 -198 55 -235 79 -28 18 -77 40 -88 40 -5 0
-13 -5 -20 -12z"/>
<path d="M3500 1445 c0 -10 62 -36 78 -32 13 4 12 5 -4 6 -11 0 -29 8 -40 16
-19 14 -34 19 -34 10z"/>
</g>
</svg>
